<?xml version="1.0" standalone="no"?>
<!DOCTYPE svg PUBLIC "-//W3C//DTD SVG 1.1//EN" "http://www.w3.org/Graphics/SVG/1.1/DTD/svg11.dtd" >
<!--
2013-9-30: Created.
-->
<svg>
<metadata>
Created by iconfont
</metadata>
<defs>

<font id="iconfont" horiz-adv-x="1024" >
  <font-face
    font-family="iconfont"
    font-weight="500"
    font-stretch="normal"
    units-per-em="1024"
    ascent="896"
    descent="-128"
  />
    <missing-glyph />
    
    <glyph glyph-name="riliriqi2" unicode="&#59400;" d="M704 736C704 753.92 689.92 768 672 768 654.08 768 640 753.92 640 736L640 704l64 0L704 736zM384 736C384 753.92 369.92 768 352 768S320 753.92 320 736L320 704l64 0L384 736zM832 704l-128 0 0-96C704 590.08 689.92 576 672 576 654.08 576 640 590.08 640 608L640 704 384 704l0-96C384 590.08 369.92 576 352 576S320 590.08 320 608L320 704 192 704C121.6 704 64 646.4 64 576l0-512c0-70.4 57.6-128 128-128l640 0c70.4 0 128 57.6 128 128L960 576C960 646.4 902.4 704 832 704zM352 128l-64 0C270.08 128 256 142.08 256 160 256 177.92 270.08 192 288 192l64 0C369.92 192 384 177.92 384 160 384 142.08 369.92 128 352 128zM352 256l-64 0C270.08 256 256 270.08 256 288S270.08 320 288 320l64 0C369.92 320 384 305.92 384 288S369.92 256 352 256zM544 128l-64 0C462.08 128 448 142.08 448 160 448 177.92 462.08 192 480 192l64 0C561.92 192 576 177.92 576 160 576 142.08 561.92 128 544 128zM544 256l-64 0C462.08 256 448 270.08 448 288S462.08 320 480 320l64 0C561.92 320 576 305.92 576 288S561.92 256 544 256zM736 128l-64 0c-17.92 0-32 14.08-32 32 0 17.92 14.08 32 32 32l64 0c17.92 0 32-14.08 32-32C768 142.08 753.92 128 736 128zM736 256l-64 0C654.08 256 640 270.08 640 288S654.08 320 672 320l64 0C753.92 320 768 305.92 768 288S753.92 256 736 256zM864 448l-704 0C142.08 448 128 462.08 128 480 128 497.92 142.08 512 160 512l704 0C881.92 512 896 497.92 896 480 896 462.08 881.92 448 864 448z"  horiz-adv-x="1024" />

    
    <glyph glyph-name="yanzhengma2" unicode="&#58966;" d="M918.090878 628.317425c-36.099173 2.492774-72.380494 9.273201-103.496166 19.237133-10.075473 3.03001-20.161179 6.388501-30.306236 10.021238-21.385053 6.29845-50.481741 18.791995-83.506902 36.592406-0.354064 0.161682-0.704035 0.364297-1.052982 0.552585-7.763824 4.190439-15.706727 8.66331-23.793916 13.412474-10.898211 6.243191-21.689998 12.902868-32.462343 19.84293-0.417509 0.281409-0.829901 0.533143-1.237177 0.806365-7.738241 4.997827-15.443737 10.158361-23.092951 15.518438-4.976338 3.413749-9.959839 7.051603-14.945387 10.659781-3.748371 2.7486-7.496741 5.330402-11.248182 8.16496-27.427676 20.48659-54.499242 43.471071-79.849606 68.233034-25.350364-24.761963-52.426023-47.746444-79.853699-68.233034-3.744277-2.833535-7.498788-5.41636-11.246135-8.16496-4.991688-3.608178-9.970072-7.246031-14.945387-10.659781-7.652284-5.360078-15.356756-10.520611-23.094998-15.518438-0.405229-0.273223-0.824785-0.524956-1.232061-0.806365-10.780531-6.941086-21.564132-13.599739-32.464389-19.84293-8.090259-4.748141-16.030092-9.222035-23.798009-13.412474-0.345877-0.187265-0.704035-0.38988-1.046842-0.552585-33.025161-17.800411-62.127989-30.292933-83.515089-36.592406-10.138918-3.637854-20.216437-6.992251-30.302143-10.021238-31.118741-9.963932-67.390853-16.744359-103.496166-19.237133l-0.086981 0c1.052982-16.181541 2.13871-37.645388 3.403516-60.882626 0.200568 0 0.434905 0 0.669242 0.035816 6.091742-86.72827 23.472598-210.093972 49.694819-282.57782 1.174756-3.166109 2.172479-6.471388 3.347235-9.605775 0.550539-1.473561 1.196245-2.837628 1.750877-4.303003 62.763462-162.03849 171.776272-279.94076 302.786071-323.156004l0-0.450255c17.316387-5.716188 31.905664-9.249665 43.426045-11.467169 11.518335 2.223644 26.115797 5.750981 43.432185 11.467169l0 0.450255c131.011846 43.215244 240.017492 161.117514 302.788118 323.156004 0.554632 1.475608 1.198292 2.829442 1.757017 4.303003 1.166569 3.134387 2.168386 6.439666 3.339048 9.605775 26.227338 72.484871 43.60717 195.84955 49.700959 282.57782 0.236384-0.033769 0.473791-0.033769 0.669242-0.033769 1.26276 23.235191 2.343371 44.696991 3.3984 60.880579L918.090878 628.317425zM870.734314 586.425316l-0.509606-9.497305c-0.51984-2.166339-0.86367-4.379751-1.02126-6.622838-5.674233-80.730673-21.61018-200.398146-47.276746-271.336802-0.710175-1.920746-1.375324-3.885494-2.034333-5.847172-0.411369-1.221828-0.816598-2.449795-1.445932-4.049223-0.524956-1.232061-1.036609-2.467191-1.38351-3.396353C758.704798 135.029602 658.351206 26.565285 541.728068-11.903865c-1.886977-0.620124-3.708462-1.359974-5.458315-2.200108-7.915273-2.473331-15.665795-4.582365-23.177885-6.302543-7.460925 1.709945-15.179724 3.810792-23.077601 6.272867-1.77646 0.855484-3.626597 1.599428-5.544273 2.230808C367.840716 26.565285 267.48917 135.029602 209.243605 285.400355c-0.458441 1.206478-0.940418 2.37714-1.692548 4.14746-0.443092 1.178849-0.840134 2.394537-1.251503 3.610224-0.663102 1.963725-1.332345 3.931542-1.934049 5.560646-25.759687 71.198575-41.694611 190.869119-47.364751 271.582395-0.157589 2.251274-0.50142 4.473895-1.027399 6.644327l-0.497327 9.296737c-0.078795 1.493004-0.157589 2.974751-0.236384 4.446265 24.62177 3.805676 48.370661 9.30083 69.956282 16.21838 10.130731 3.045359 20.419052 6.435573 31.414477 10.353812 25.206078 7.576559 56.437383 21.220301 90.478687 39.532365 0.590448 0.302899 1.155313 0.603751 1.654686 0.877997 8.228405 4.439102 16.647145 9.182127 24.809035 13.975293 10.709923 6.132674 21.985734 13.023618 34.475186 21.064758 0.349971 0.224104 0.952698 0.611937 1.296529 0.846274 8.204869 5.300726 16.375969 10.776438 24.12035 16.205077 4.546549 3.114944 9.094122 6.402827 13.650905 9.699919l2.443655 1.769296 4.041036 2.912329c2.581802 1.847068 5.16258 3.699252 7.535627 5.495154 17.894555 13.369495 35.278481 27.453259 51.984978 42.119283 16.687054-14.650675 34.022884-28.704762 51.797713-41.980113 2.565429-1.936095 5.127787-3.776 7.691169-5.609765l4.27742-3.085268 1.552356-1.125637c4.77884-3.462868 9.56075-6.92369 13.94971-9.928117 8.117888-5.693676 16.301268-11.17348 23.730471-15.962553l2.059915-1.345648c12.386098-7.980765 23.663956-14.874779 34.072003-20.836561 8.576329-5.03262 16.994046-9.774621 25.015743-14.103206 0.399089-0.217964 0.950651-0.50756 1.534959-0.808412 34.167171-18.404162 65.523319-32.114418 90.813309-39.71963 11.014868-3.921309 21.271466-7.30129 30.587646-10.091846 22.11774-7.083326 46.068222-12.641925 70.781066-16.470113C870.888833 589.282387 870.812085 587.857944 870.734314 586.425316zM711.261253 484.344383 476.928227 244.168278 356.968088 367.132844c-8.311293 8.515954-21.772886 8.515954-30.084179 0-8.311293-8.523117-8.311293-22.320355 0-30.839379l135.00274-138.378627c4.155646-4.260024 9.597589-6.390547 15.041578-6.390547 5.443989 0 10.886955 2.130524 15.040555 6.390547l249.374604 255.592212c8.311293 8.515954 8.311293 22.316262 0 30.837332C733.034139 492.862383 719.571523 492.862383 711.261253 484.344383z"  horiz-adv-x="1024" />

    
    <glyph glyph-name="zhcc_yonghuming" unicode="&#59007;" d="M831.0784 542.3104c0 176.3328-141.1072 317.44-317.44 317.44s-317.44-141.1072-317.44-317.44c0-119.808 63.488-222.208 162.2016-275.0464-133.7344-53.0432-236.1344-169.3696-264.192-317.44-3.4816-17.6128 6.9632-38.7072 28.2624-42.3936h6.9632c17.6128 0 31.744 10.6496 35.2256 28.2624 31.744 165.6832 176.3328 285.696 345.4976 289.1776h6.9632c172.8512 0 313.9584 141.1072 313.9584 317.44z m-564.224 0c0 137.4208 109.3632 246.784 246.784 246.784s246.784-109.3632 246.784-246.784c0-133.9392-109.3632-243.3024-243.3024-246.784h-10.6496c-133.7344 3.4816-239.616 112.64-239.616 246.784z m479.6416-320.9216c-17.6128 10.6496-38.7072 6.9632-49.3568-10.6496-10.6496-17.6128-6.9632-38.7072 10.6496-49.3568 81.1008-56.32 137.4208-133.9392 155.2384-225.6896 3.4816-17.6128 17.6128-28.2624 35.2256-28.2624h6.9632c17.6128 3.4816 31.744 21.0944 28.2624 42.3936-21.2992 109.3632-88.2688 204.5952-186.9824 271.5648z m0 0"  horiz-adv-x="1024" />

    
    <glyph glyph-name="mima" unicode="&#58923;" d="M768 480h-441.6v134.4c0 115.2 89.6 204.8 204.8 204.8s204.8-89.6 204.8-204.8v-64c0-19.2 19.2-38.4 38.4-38.4s38.4 19.2 38.4 38.4v70.4c0 153.6-121.6 275.2-275.2 275.2s-275.2-128-275.2-275.2v-140.8c-64-19.2-102.4-76.8-102.4-134.4v-326.4c0-76.8 64-140.8 140.8-140.8h480c76.8 0 140.8 64 140.8 140.8v326.4c-12.8 76.8-76.8 134.4-153.6 134.4z m70.4-460.8c0-38.4-25.6-64-64-64h-480c-38.4 0-64 25.6-64 64v326.4c0 38.4 25.6 64 64 64h480c38.4 0 64-25.6 64-64v-326.4zM531.2 307.2c-19.2 0-38.4-19.2-38.4-38.4v-134.4c0-19.2 19.2-38.4 38.4-38.4s38.4 19.2 38.4 38.4v140.8c0 6.4-6.4 19.2-12.8 25.6-6.4 6.4-19.2 6.4-25.6 6.4z"  horiz-adv-x="1024" />

    
    <glyph glyph-name="guanbi" unicode="&#59326;" d="M512.001 880.322C237.414 880.322 14.82 657.727 14.82 383.14S237.414-114.04 512-114.04s497.18 222.593 497.18 497.18S786.589 880.322 512.002 880.322z m213.211-645.937c17.798-17.803 17.798-46.657 0-64.456-17.798-17.797-46.658-17.797-64.456 0L512.001 318.685 363.241 169.93c-17.799-17.797-46.652-17.797-64.45 0-17.804 17.799-17.804 46.653 0 64.456L447.545 383.14 298.79 531.896c-17.803 17.798-17.803 46.657 0 64.455 17.799 17.798 46.652 17.798 64.45 0l148.761-148.755 148.755 148.755c17.798 17.798 46.658 17.798 64.456 0 17.798-17.798 17.798-46.657 0-64.455L576.456 383.14l148.756-148.755z m0 0"  horiz-adv-x="1024" />

    
    <glyph glyph-name="guanbi1" unicode="&#58902;" d="M511.98711 822.860395a438.834339 438.834339 0 0 0 310.84099-749.675329 438.834339 438.834339 0 1 0-621.68198 621.68198 436.091625 436.091625 0 0 0 310.84099 127.993349m0 73.139056a511.973396 511.973396 0 1 1 362.03833-149.935065A510.144919 510.144919 0 0 1 511.98711 895.999451zM318.016685 241.80618600000003m18.100993 18.100993l299.959313 299.959313q18.100993 18.100993 36.201986 0l15.515137-15.515137q18.100993-18.100993 0-36.201986l-299.959313-299.959313q-18.100993-18.100993-36.201986 0l-15.515137 15.515137q-18.100993 18.100993 0 36.201986ZM318.016685 526.250362m18.100993 18.100993l15.515137 15.515137q18.100993 18.100993 36.201986 0l299.959313-299.959313q18.100993-18.100993 0-36.201986l-15.515137-15.515137q-18.100993-18.100993-36.201986 0l-299.959313 299.959313q-18.100993 18.100993 0 36.201986Z"  horiz-adv-x="1024" />

    
    <glyph glyph-name="shijianriqi" unicode="&#58880;" d="M113.778 497.778h796.444V782.222H739.556v56.89h-56.89v-56.89H284.445v56.89h-56.888v-56.89H56.889v-739.555H455.11v56.889H113.778V497.778z m0 227.555h113.778v-56.889h56.888v56.89h398.223v-56.89h56.889v56.89h113.777v-170.667H113.778V725.333zM796.444 213.333V327.111h-56.888v-170.667h170.666v56.89zM227.556 440.89h113.777V327.11H227.556z m170.666 0H512V327.11H398.222zM227.556 270.222h113.777v-113.778H227.556zM768 440.889c-142.222 0-256-113.778-256-256s113.778-256 256-256 256 113.778 256 256-113.778 256-256 256z m0-455.111c-108.089 0-199.111 91.022-199.111 199.11S659.91 384 768 384s199.111-91.022 199.111-199.111S876.09-14.222 768-14.222z"  horiz-adv-x="1024" />

    
    <glyph glyph-name="jianhao" unicode="&#59173;" d="M846.7 429.6v-91.3c0-12.7-4.4-23.5-13.3-32.3-8.9-8.9-19.7-13.3-32.3-13.3H222.9c-12.7 0-23.5 4.4-32.3 13.3-8.9 8.9-13.3 19.7-13.3 32.3v91.3c0 12.7 4.4 23.5 13.3 32.3 8.9 8.9 19.7 13.3 32.3 13.3h578.2c12.7 0 23.5-4.4 32.3-13.3 8.9-8.8 13.3-19.5 13.3-32.3z"  horiz-adv-x="1024" />

    
    <glyph glyph-name="circle" unicode="&#59613;" d="M950.857143 384q0-119.428571-58.857143-220.285714T732.285714 4 512-54.857143t-220.285714 58.857143T132 163.714286 73.142857 384t58.857143 220.285714T291.714286 764 512 822.857143t220.285714-58.857143T892 604.285714 950.857143 384z"  horiz-adv-x="1024" />

    
    <glyph glyph-name="filepicture" unicode="&#59250;" d="M832 0l-640 0 0 128 192 320 263.00416-320 184.99584 128 0-256zM832 415.98976c0-53.02272-42.98752-96.01024-96.01024-96.01024s-96.01024 42.98752-96.01024 96.01024 42.98752 96.01024 96.01024 96.01024c53.02272 0 96.01024-42.98752 96.01024-96.01024zM917.8112 666.9312c-22.2208 30.28992-53.16608 65.69984-87.18336 99.69664s-69.40672 64.96256-99.69664 87.18336c-51.56864 37.82656-76.5952 42.1888-90.9312 42.1888l-496.00512 0c-44.11392 0-79.99488-35.88096-79.99488-79.99488l0-864.01024c0-44.11392 35.88096-79.99488 79.99488-79.99488l736.01024 0c44.11392 0 79.99488 35.88096 79.99488 79.99488l0 624.00512c0 14.336-4.36224 39.34208-42.1888 90.9312zM785.36704 721.36704c30.69952-30.69952 54.80448-58.38848 72.58112-81.36704l-153.94816 0 0 153.94816c22.97856-17.77664 50.688-41.8816 81.36704-72.58112zM896-48.00512c0-8.66304-7.33184-15.99488-15.99488-15.99488l-736.01024 0c-8.66304 0-15.99488 7.33184-15.99488 15.99488l0 864.01024c0 8.66304 7.33184 15.99488 15.99488 15.99488 0 0 495.96416 0 496.00512 0l0-224.01024c0-17.67424 14.336-32.01024 32.01024-32.01024l224.01024 0 0-624.00512z"  horiz-adv-x="1024" />

    
    <glyph glyph-name="file" unicode="&#59195;" d="M213.333333 896l426.666667 0 298.666667-298.666667 0-597.333333q0-52.992-37.504-90.496t-90.496-37.504l-597.333333 0q-52.992 0-90.496 37.504t-37.504 90.496l0 768q0 52.992 37.504 90.496t90.496 37.504zM554.666667 512l0 298.666667-341.333333 0q-18.005333 0-30.336-12.330667t-12.330667-30.336l0-768q0-18.005333 12.330667-30.336t30.336-12.330667l597.333333 0q18.005333 0 30.336 12.330667t12.330667 30.336l0 512-298.666667 0zM818.005333 597.333333l-178.005333 178.005333 0-178.005333 178.005333 0z"  horiz-adv-x="1024" />

    
    <glyph glyph-name="filecodeo" unicode="&#60079;" d="M911.989715 678.854368q16.017142-16.017142 27.426612-43.443754t11.409471-50.318692l0-658.238697q0-22.818942-16.017142-38.836083t-38.836083-16.017142l-767.945147 0q-22.818942 0-38.836083 16.017142t-16.017142 38.836083l0 914.220413q0 22.818942 16.017142 38.836083t38.836083 16.017142l511.963431 0q22.818942 0 50.318692-11.409471t43.443754-27.426612zM658.275266 818.327834l0-214.805228 214.805228 0q-5.704735 16.602243-12.579673 23.404043l-178.821513 178.821513q-6.874938 6.874938-23.404043 12.579673zM877.688165-54.789229l0 585.101064-237.697307 0q-22.818942 0-38.836083 16.017142t-16.017142 38.836083l0 237.697307-438.825798 0 0-877.651596 731.37633 0zM347.440326 457.174202q4.534533 6.289836 11.994572 7.167488t13.676737-3.730019l29.108778-21.721877q6.289836-4.534533 7.167488-11.994572t-3.730019-13.676737l-104.001714-138.815227 104.001714-138.815227q4.534533-6.289836 3.730019-13.676737t-7.167488-11.994572l-29.108778-21.721877q-6.289836-4.534533-13.676737-3.730019t-11.994572 7.167488l-129.16106 172.019713q-7.972002 10.82437 0 21.721877zM805.720734 285.154489q7.972002-10.82437 0-21.721877l-129.16106-172.019713q-4.534533-6.289836-11.994572-7.167488t-13.676737 3.730019l-29.108778 21.721877q-6.289836 4.534533-7.167488 11.994572t3.730019 13.676737l104.001714 138.815227-104.001714 138.815227q-4.534533 6.289836-3.730019 13.676737t7.167488 11.994572l29.108778 21.721877q6.289836 4.534533 13.676737 3.730019t11.994572-7.167488zM451.44204 21.785872q-7.460039 1.170202-11.702021 7.460039t-3.144918 13.676737l78.842368 474.809514q1.170202 7.460039 7.460039 11.702021t13.676737 3.144918l35.983715-5.704735q7.460039-1.170202 11.702021-7.460039t3.144918-13.676737l-78.842368-474.809514q-1.170202-7.460039-7.460039-11.702021t-13.676737-3.144918z"  horiz-adv-x="1024" />

    
    <glyph glyph-name="fileword" unicode="&#59141;" d="M639.776 420.096 684 420.096 632.992 193.92 566.656 511.936 460.096 511.936 382.976 193.92 325.184 511.936 213.792 511.936 326.88 0.064 435.712 0.064 512 302.752 580.256 0.064 680.608 0.064 810.24 511.936 639.776 511.936zM903.424 696.576l-142.88 142.848C729.472 870.56 668 896 624 896L144 896C100 896 64 860 64 816l0-864c0-44 36-80 80-80l736 0c44 0 80 36 80 80L960 560C960 604 934.528 665.472 903.424 696.576zM858.176 651.328c3.136-3.136 6.24-6.976 9.28-11.328L704 640 704 803.456c4.352-3.04 8.192-6.144 11.328-9.28L858.176 651.328zM896-48c0-8.672-7.328-16-16-16L144-64c-8.672 0-16 7.328-16 16L128 816c0 8.672 7.328 16 16 16l480 0c4.832 0 10.24-0.608 16-1.696L640 576l254.304 0c1.088-5.76 1.696-11.168 1.696-16L896-48z"  horiz-adv-x="1024" />

    
    <glyph glyph-name="filemusic" unicode="&#59101;" d="M917.792 666.912c-22.208 30.304-53.184 65.696-87.168 99.712s-69.408 64.96-99.712 87.168c-51.584 37.824-76.576 42.208-90.912 42.208l-496 0c-44.096 0-80-35.872-80-80l0-864c0-44.096 35.872-80 80-80l736 0c44.096 0 80 35.904 80 80l0 624c0 14.336-4.384 39.36-42.208 90.912l0 0zM785.376 721.376c30.688-30.688 54.784-58.4 72.576-81.376l-153.952 0 0 153.952c22.976-17.792 50.688-41.888 81.376-72.576l0 0zM896-48c0-8.672-7.328-16-16-16l-736 0c-8.672 0-16 7.328-16 16l0 864c0 8.672 7.328 16 16 16 0 0 495.968 0 496 0l0-224c0-17.664 14.336-32 32-32l224 0 0-624zM756.288 504.736c-7.424 6.08-17.152 8.512-26.56 6.624l-320-64c-14.944-3.008-25.728-16.128-25.728-31.392l0-236.864c-18.816 8.16-40.672 12.864-64 12.864-70.688 0-128-42.976-128-96s57.312-96 128-96 128 42.976 128 96l0 229.76 256 51.2 0-133.856c-18.816 8.16-40.672 12.864-64 12.864-70.688 0-128-42.976-128-96s57.312-96 128-96 128 42.976 128 96l0 320c0 9.6-4.288 18.656-11.712 24.736z"  horiz-adv-x="1024" />

    
    <glyph glyph-name="file1" unicode="&#58982;" d="M858.251002 830.461331 709.22692 830.461331l-0.204661-0.184195c-0.112564 0-0.204661 0.038886-0.312108 0.038886-13.967106 0-25.461905-10.3006-27.538193-23.667026l-0.248663-0.225127c-7.556093-33.045627-18.427698-76.41232-53.822836-76.41232l-246.183935 1.517563c-34.927487 0-45.37442 42.771129-53.413514 75.16491-1.36509 13.386892-12.069897 23.892153-25.568329 24.910343l-0.370437 0.375553L165.181063 831.979918c-20.552082 0-37.239136-16.666588-37.239136-37.239136l0-819.454394c0-20.571525 16.686031-37.238113 37.239136-37.238113l693.049472-1.517563c20.557198 0 37.239136 16.666588 37.239136 37.238113L895.469672 793.222195C895.490138 813.794743 878.788757 830.461331 858.251002 830.461331L858.251002 830.461331 858.251002 830.461331zM858.251002-26.232199l-693.069939 1.517563L165.181063 794.739758l126.998439 0c9.087982-36.459377 26.38288-100.44569 88.810698-100.44569l246.183935-1.517563c62.952774 0 80.69281 64.810075 88.940658 100.44569L858.230536 793.222195l0-819.454394L858.251002-26.232199 858.251002-26.232199 858.251002-26.232199zM407.172513 794.627195l209.110575-1.517563c10.295484 0 18.61701 8.346085 18.61701 18.622126 0 10.277064-8.321526 18.61701-18.61701 18.61701L407.172513 831.866331c-10.281157 0-18.622126-8.339946-18.622126-18.61701C388.550387 802.974303 396.891356 794.627195 407.172513 794.627195L407.172513 794.627195 407.172513 794.627195zM246.674099 514.154315c0-10.276041 8.339946-18.61701 18.61701-18.61701l497.744321-1.517563c10.295484 0 18.622126 8.340969 18.622126 18.61701 0 10.277064-8.326643 18.622126-18.622126 18.622126l-497.744321 1.517563C255.014044 532.776442 246.674099 524.43138 246.674099 514.154315L246.674099 514.154315 246.674099 514.154315zM763.03543 353.205647l-497.744321 1.517563c-10.277064 0-18.61701-8.321526-18.61701-18.61701 0-10.3006 8.339946-18.622126 18.61701-18.622126l497.744321-1.517563c10.295484 0 18.622126 8.321526 18.622126 18.622126C781.657556 344.884121 773.330914 353.205647 763.03543 353.205647L763.03543 353.205647 763.03543 353.205647zM763.03543 176.473503l-497.744321 1.517563c-10.277064 0-18.61701-8.321526-18.61701-18.622126 0-10.295484 8.339946-18.61701 18.61701-18.61701l497.744321-1.517563c10.295484 0 18.622126 8.321526 18.622126 18.61701C781.657556 168.151977 773.330914 176.473503 763.03543 176.473503L763.03543 176.473503 763.03543 176.473503zM763.03543 176.473503"  horiz-adv-x="1024" />

    
    <glyph glyph-name="fileremove" unicode="&#59602;" d="M554.666667 597.333333M853.333333 554.666667l-256 0c-25.6 0-42.666667 17.066667-42.666667 42.666667L554.666667 853.333333l85.333333 0 0-213.333333 213.333333 0L853.333333 554.666667zM725.333333-128 170.666667-128c-25.6 0-42.666667 17.066667-42.666667 42.666667L128 853.333333c0 25.6 17.066667 42.666667 42.666667 42.666667l426.666667 0c12.8 0 21.333333-4.266667 29.866667-12.8l256-256C891.733333 618.666667 896 610.133333 896 597.333333l0-213.333333-85.333333 0L810.666667 580.266667 580.266667 810.666667 213.333333 810.666667l0-853.333333 512 0L725.333333-128zM853.333333 128l-256 0c-25.6 0-42.666667 17.066667-42.666667 42.666667s17.066667 42.666667 42.666667 42.666667l256 0c25.6 0 42.666667-17.066667 42.666667-42.666667S878.933333 128 853.333333 128zM725.333333-128c-166.4 0-298.666667 132.266667-298.666667 298.666667s132.266667 298.666667 298.666667 298.666667 298.666667-132.266667 298.666667-298.666667S891.733333-128 725.333333-128zM725.333333 384c-119.466667 0-213.333333-93.866667-213.333333-213.333333s93.866667-213.333333 213.333333-213.333333 213.333333 93.866667 213.333333 213.333333S844.8 384 725.333333 384z"  horiz-adv-x="1024" />

    
    <glyph glyph-name="file-sound-o" unicode="&#59003;" d="M890.500043 678.857143q16-16 27.428571-43.428572t11.428572-50.285714v-658.285714q0-22.857143-16-38.857143t-38.857143-16H106.500043q-22.857143 0-38.857143 16t-16 38.857143V841.142857q0 22.857143 16 38.857143T106.500043 896h512q22.857143 0 50.285714-11.428571t43.428572-27.428572z m-253.714286 139.428571v-214.857143h214.857143q-5.714286 16.571429-12.571429 23.428572l-178.857142 178.857143q-6.857143 6.857143-23.428572 12.571428z m219.428572-873.142857V530.285714H618.500043q-22.857143 0-38.857143 16t-16 38.857143V822.857143H124.785757v-877.714286h731.428572zM405.928614 410.285714q11.428571-4.571429 11.428572-17.142857v-310.857143q0-12.571429-11.428572-17.142857-4.571429-1.142857-6.857143-1.142857-6.857143 0-13.142857 5.142857l-94.857143 95.428572H216.214329q-8 0-13.142858 5.142857t-5.142857 13.142857v109.714286q0 8 5.142857 13.142857t13.142858 5.142857h74.857142l94.857143 95.428571q9.142857 8.571429 20 4z m238.285715-393.714285q17.714286 0 28.571428 13.714285 73.714286 90.857143 73.714286 207.428572t-73.714286 207.428571q-9.142857 12-24.571428 13.714286t-26.857143-8q-12-9.714286-13.428572-24.857143T616.214329 398.857143q57.142857-70.285714 57.142857-161.142857t-57.142857-161.142857q-9.714286-12-8.285715-27.142858T621.357186 25.142857q10.285714-8.571429 22.857143-8.571428z m-120.571429 84.571428q15.428571 0 26.857143 11.428572 49.714286 53.142857 49.714286 125.142857t-49.714286 125.142857q-10.285714 10.857143-25.714286 11.428571t-26.285714-9.714285-11.428572-25.428572 10.285715-26.571428q29.714286-32.571429 29.714285-74.857143t-29.714285-74.857143q-10.857143-11.428571-10.285715-26.571429t11.428572-25.428571q11.428571-9.714286 25.142857-9.714286z"  horiz-adv-x="1024" />

    
    <glyph glyph-name="file-add-outline" unicode="&#58990;" d="M842.24 540.586667l-232.106667 256a42.666667 42.666667 0 0 1-31.573333 14.08h-298.666667A107.946667 107.946667 0 0 1 170.666667 704v-640A107.946667 107.946667 0 0 1 279.893333-42.666667h464.213334A107.946667 107.946667 0 0 1 853.333333 64V512a42.666667 42.666667 0 0 1-11.093333 28.586667zM597.333333 682.666667l116.906667-128h-85.333333a33.706667 33.706667 0 0 0-31.573334 36.266666z m146.773334-640H279.893333a22.613333 22.613333 0 0 0-23.893333 21.333333v640a22.613333 22.613333 0 0 0 23.893333 21.333333H512v-134.4A119.04 119.04 0 0 1 627.626667 469.333333H768v-405.333333a22.613333 22.613333 0 0 0-23.893333-21.333333zM597.333333 341.333333h-42.666666v42.666667a42.666667 42.666667 0 0 1-85.333334 0v-42.666667h-42.666666a42.666667 42.666667 0 0 1 0-85.333333h42.666666v-42.666667a42.666667 42.666667 0 0 1 85.333334 0v42.666667h42.666666a42.666667 42.666667 0 0 1 0 85.333333z"  horiz-adv-x="1024" />

    
    <glyph glyph-name="add-file" unicode="&#58909;" d="M288 768C235.328 768 192 724.672 192 672v-576c0-52.672 43.328-96 96-96h208.768a288 288 0 0 1 239.232-128c158.72 0 288 129.28 288 288 0 124.864-80.512 230.592-192 270.4V557.248L621.248 768H288z m0-64H576v-192h192v-67.2c-10.624 1.152-21.056 3.2-32 3.2C577.28 448 448 318.72 448 160c0-33.792 6.848-65.856 17.6-96H288a31.552 31.552 0 0 0-32 32v576c0 17.984 14.016 32 32 32z m352-45.248L722.752 576H640V658.752zM736 384c124.096 0 224-99.904 224-224S860.096-64 736-64A223.488 223.488 0 0 0 512 160C512 284.096 611.904 384 736 384zM704 320v-128H576v-64h128v-128h64v128h128v64h-128V320h-64z"  horiz-adv-x="1024" />

    
    <glyph glyph-name="file2" unicode="&#59093;" d="M924.672 632.32L657.92 882.176C648.704 890.88 635.904 896 622.592 896h-435.2C129.536 896 82.944 848.384 82.944 790.016v-811.52c0-58.368 47.104-105.984 104.448-105.984h649.216c57.856 0 104.448 47.616 104.448 105.984V594.432c0 14.336-5.632 28.16-16.384 37.888z m-299.008 138.24l192-179.712h-190.976c-0.512 0-1.024 0.512-1.024 1.024V770.56z m211.968-792.576c0-2.048-1.024-2.56-1.024-2.56H187.392s-1.024 0.512-1.024 2.56V790.016c0 2.048 1.024 2.56 1.024 2.56h337.92c-2.048-5.632-3.072-11.264-3.072-17.92v-182.784c0-57.856 47.104-104.448 104.448-104.448h195.072c5.632 0 10.752 1.024 15.872 2.56v-512zM718.848 156.672H300.032c-25.6 0-46.592-20.992-46.592-46.592s20.992-46.592 46.592-46.592h418.816c25.6 0 46.592 20.992 46.592 46.592s-20.992 46.592-46.592 46.592zM300.032 239.104h273.92c25.6 0 46.592 20.992 46.592 46.592s-20.992 46.592-46.592 46.592H300.032c-25.6 0-46.592-20.992-46.592-46.592s20.992-46.592 46.592-46.592z"  horiz-adv-x="1024" />

    
    <glyph glyph-name="file-unknown" unicode="&#59182;" d="M903.542857 639.2L657.6 885.257143c-6.857143 6.857143-16.228571 10.742857-25.942857 10.742857H146.285714c-20.228571 0-36.571429-16.342857-36.571428-36.571429v-950.857142c0-20.228571 16.342857-36.571429 36.571428-36.571429h731.428572c20.228571 0 36.571429 16.342857 36.571428 36.571429V613.371429c0 9.714286-3.885714 18.971429-10.742857 25.828571zM829.942857 596.571429H614.857143V811.657143L829.942857 596.571429z m2.057143-642.285715H192V813.714286h345.142857v-246.857143a48 48 0 0 1 48-48h246.857143v-564.571429zM386.285714 341.714286c0-6.171429 5.028571-10.857143 11.2-10.857143h37.028572c6.171429 0 11.2 4.8 11.2 10.742857 0 32.228571 29.485714 58.971429 66.285714 58.971429s66.285714-26.742857 66.285714-58.857143c0-28.914286-24-53.942857-56.342857-58.171429-22.057143-3.2-39.428571-23.2-39.657143-45.828571v-36.571429c0-6.285714 5.142857-11.428571 11.428572-11.428571h36.571428c6.285714 0 11.428571 5.142857 11.428572 11.428571v13.942857c0 6.857143 4.571429 13.142857 11.085714 15.2 50.971429 16.457143 85.714286 61.714286 84.914286 113.028572-0.914286 63.428571-56.228571 115.2-124 116.114285-70.171429 0.8-127.428571-52.114286-127.428572-117.714285z m89.142857-222.857143a36.571429 36.571429 0 1 1 73.142858 0 36.571429 36.571429 0 1 1-73.142858 0z"  horiz-adv-x="1024" />

    
    <glyph glyph-name="file-search" unicode="&#59184;" d="M713.142857 612.571429v54.857142c0 5.028571-4.114286 9.142857-9.142857 9.142858H265.142857c-5.028571 0-9.142857-4.114286-9.142857-9.142858v-54.857142c0-5.028571 4.114286-9.142857 9.142857-9.142858h438.857143c5.028571 0 9.142857 4.114286 9.142857 9.142858z m-448-100.571429c-5.028571 0-9.142857-4.114286-9.142857-9.142857v-54.857143c0-5.028571 4.114286-9.142857 9.142857-9.142857h210.285714c5.028571 0 9.142857 4.114286 9.142858 9.142857v54.857143c0 5.028571-4.114286 9.142857-9.142858 9.142857H265.142857z m164.571429-516.571429H164.571429V800h640v-393.142857c0-5.028571 4.114286-9.142857 9.142857-9.142857h64c5.028571 0 9.142857 4.114286 9.142857 9.142857V845.714286c0 20.228571-16.342857 36.571429-36.571429 36.571428H118.857143c-20.228571 0-36.571429-16.342857-36.571429-36.571428v-896c0-20.228571 16.342857-36.571429 36.571429-36.571429h310.857143c5.028571 0 9.142857 4.114286 9.142857 9.142857v64c0 5.028571-4.114286 9.142857-9.142857 9.142857z m509.371428-58.857142l-106.628571 106.628571C857.942857 76.914286 873.142857 118.971429 873.142857 164.571429c0 111.085714-90.057143 201.142857-201.142857 201.142857s-201.142857-90.057143-201.142857-201.142857 90.057143-201.142857 201.142857-201.142858c40.914286 0 78.857143 12.228571 110.628571 33.142858l108.228572-108.228572c1.828571-1.828571 4.114286-2.628571 6.4-2.628571s4.685714 0.914286 6.4 2.628571l35.428571 35.428572a9.028571 9.028571 0 0 1 0 12.8zM672 36.571429c-70.742857 0-128 57.257143-128 128s57.257143 128 128 128 128-57.257143 128-128-57.257143-128-128-128z"  horiz-adv-x="1024" />

    
    <glyph glyph-name="filepackage" unicode="&#59111;" d="M958.976-81.408H70.656S0-92.16 0 2.048V764.416S1.536 849.408 88.064 849.408H399.36s37.888 7.68 69.12-40.96c29.696-47.104 47.104-76.8 47.104-76.8s10.752-12.8 36.352-12.8h400.896s70.656 7.68 70.656-70.656v-650.752s10.752-78.848-64.512-78.848zM892.928 516.096c0 18.944-15.872 34.816-34.816 34.816H166.4c-20.48 0-36.352-15.872-36.352-34.816v-3.072c0-20.48 15.872-36.352 36.352-36.352h691.712c18.944 0 34.816 15.872 34.816 36.352z"  horiz-adv-x="1024" />

    
    <glyph glyph-name="file3" unicode="&#59183;" d="M1051.307 752.64c78.916 0 143.36-64.375 143.36-143.36v-546.133c0-78.848-64.376-143.292-143.36-143.292H177.493c-78.916 0-143.36 64.375-143.36 143.36V718.507c0 78.848 64.376 143.36 143.36 143.36h341.812L628.53 752.64h422.776zM177.493 793.6c-41.233 0-75.093-33.86-75.093-75.093v-655.36c0-41.165 33.86-75.025 75.093-75.025h873.814c41.233 0 75.093 33.86 75.093 75.093V609.348c0 41.233-33.86 75.094-75.093 75.094H600.269L491.042 793.6H177.493z"  horiz-adv-x="1228" />

    
    <glyph glyph-name="file-forbid-line" unicode="&#59586;" d="M481.706667 42.666667a296.96 296.96 0 0 1 41.173333-85.333334H170.368A42.666667 42.666667 0 0 0 128-0.341333V768.341333C128 791.722667 147.072 810.666667 170.624 810.666667H682.666667l213.333333-213.333334v-199.424a296.533333 296.533333 0 0 1-85.333333 25.728V554.666667h-170.666667V725.333333H213.333333v-682.666666h268.373334zM768-85.333333a213.333333 213.333333 0 1 0 0 426.666666 213.333333 213.333333 0 0 0 0-426.666666z m-55.168 97.792a128 128 0 0 1 170.709333 170.709333l-170.709333-170.666667z m-60.373333 60.373333l170.709333 170.666667a128 128 0 0 1-170.709333-170.709334z"  horiz-adv-x="1024" />

    
    <glyph glyph-name="file-zip-fill" unicode="&#59098;" d="M426.666667 810.666667v-85.333334h85.333333V810.666667h341.632c23.381333 0 42.368-18.944 42.368-42.325334v-768.682666a42.666667 42.666667 0 0 0-42.368-42.325334H170.368A42.368 42.368 0 0 0 128-0.341333V768.341333A42.666667 42.666667 0 0 0 170.368 810.666667H426.666667z m85.333333-85.333334v-85.333333h85.333333V725.333333h-85.333333z m-85.333333-85.333333v-85.333333h85.333333V640h-85.333333z m85.333333-85.333333v-85.333334h85.333333V554.666667h-85.333333z m-85.333333-85.333334v-85.333333h85.333333v85.333333h-85.333333z m85.333333-85.333333v-85.333333h-85.333333v-128h170.666666v213.333333h-85.333333z"  horiz-adv-x="1024" />

    
    <glyph glyph-name="fileopen-f" unicode="&#58917;" d="M810.666667 42.666667H170.666667c-46.933333 0-85.333333 38.4-85.333334 85.333333V640c0 46.933333 38.4 85.333333 85.333334 85.333333h256l85.333333-85.333333h298.666667c46.933333 0 85.333333-38.4 85.333333-85.333333H170.666667v-426.666667l89.6 341.333333h729.6l-98.133334-362.666666c-8.533333-38.4-42.666667-64-81.066666-64z"  horiz-adv-x="1024" />

    
    <glyph glyph-name="filenone-l" unicode="&#58919;" d="M861.866667 38.4L145.066667 716.8c-12.8 8.533333-17.066667 29.866667-4.266667 42.666667 12.8 12.8 29.866667 12.8 42.666667 0L904.533333 85.333333c12.8-12.8 12.8-29.866667 0-42.666666-4.266667-4.266667-12.8-8.533333-21.333333-8.533334-8.533333-4.266667-17.066667 0-21.333333 4.266667zM768 42.666667H170.666667c-46.933333 0-85.333333 38.4-85.333334 85.333333V640c0 21.333333 8.533333 42.666667 25.6 59.733333l68.266667-68.266666c-4.266667 0-8.533333-8.533333-8.533333-12.8v-469.333334c0-12.8 8.533333-21.333333 21.333333-21.333333H682.666667l85.333333-85.333333z m170.666667 81.066666l-85.333334 81.066667V533.333333c0 12.8-8.533333 21.333333-21.333333 21.333334H938.666667v-430.933334zM490.666667 554.666667l-85.333334 85.333333h-12.8L302.933333 725.333333H426.666667l85.333333-85.333333h341.333333c46.933333 0 85.333333-38.4 85.333334-85.333333H490.666667z"  horiz-adv-x="1024" />

    
    <glyph glyph-name="filenone-f" unicode="&#58922;" d="M861.866667 38.4L145.066667 716.8c-12.8 8.533333-17.066667 29.866667-4.266667 42.666667 12.8 12.8 29.866667 12.8 42.666667 0L904.533333 85.333333c12.8-12.8 12.8-29.866667 0-42.666666-4.266667-4.266667-12.8-8.533333-21.333333-8.533334-8.533333-4.266667-17.066667 0-21.333333 4.266667zM768 42.666667H170.666667c-46.933333 0-85.333333 38.4-85.333334 85.333333V640c0 21.333333 8.533333 42.666667 25.6 59.733333L768 42.666667z m170.666667 81.066666L302.933333 725.333333H426.666667l85.333333-85.333333h341.333333c46.933333 0 85.333333-38.4 85.333334-85.333333v-430.933334z"  horiz-adv-x="1024" />

    
    <glyph glyph-name="file_image" unicode="&#59244;" d="M614.4 380.0064a51.1488 51.1488 0 0 0 102.4 0 51.1488 51.1488 0 0 0-102.4 0z m38.4-150.528L819.2 27.8528H204.8l231.3216 303.6672 145.2032-206.8992 71.4752 104.7552zM921.6 22.528c0-28.16-22.9376-45.7216-51.2-45.7216H153.6c-28.2624 0-51.2 17.5104-51.2 45.7216V737.4336c0 28.16 22.9376 56.4224 51.2 56.4224h460.8v-209.6128c0-56.3712 45.824-96.768 102.4-96.768h204.8v-464.9472z m87.3984 578.048L731.8016 878.336C722.176 887.9104 709.1712 896 695.6032 896H102.4v-2.7136c-56.576 0-102.4-47.0528-102.4-103.424v-818.3808C0-84.8896 45.824-128 102.4-128v2.7136h819.2V-128c56.576 0 102.4 44.4416 102.4 100.8128V563.0976c0 13.5168-5.376 27.904-15.0016 37.4272z"  horiz-adv-x="1024" />

    
    <glyph glyph-name="File" unicode="&#60077;" d="M0 896h1024v-1024H0zM192 576l-22.624 22.624A32 32 0 0 1 160 576h32z m224 224V832a32 32 0 0 1-22.624-9.376L416 800z m416-128h-32 32z m0-576h32-32zM192 96h32-32z m256 448v-32a32 32 0 0 1 32 32h-32z m-256 0H160h32z m22.624 9.376l224 224-45.248 45.248-224-224 45.248-45.248zM320-64h384v64H320v-64zM800 672v-576h64V672h-64zM320 0a96 96 0 0 0-96 96H160a160 160 0 0 1 160-160v64z m384-64a160 160 0 0 1 160 160h-64a96 96 0 0 0-96-96v-64z m0 832a96 96 0 0 0 96-96h64a160 160 0 0 1-160 160v-64z m-288 0h32V832h-32v-64z m32 0h256V832h-256v-64z m-288-192v-32h64v32H160z m0-32v-448h64V544H160z m256 256v-256h64V800h-64z m32-224H192v-64h256v64z"  horiz-adv-x="1024" />

    
    <glyph glyph-name="file-pdf" unicode="&#59164;" d="M842.016 306.528c-13.664 13.44-43.904 20.576-89.984 21.184-31.168 0.352-68.704-2.4-108.16-7.936-17.664 10.208-35.904 21.28-50.176 34.656-38.464 35.904-70.56 85.76-90.592 140.608 1.312 5.12 2.4 9.632 3.456 14.208 0 0 21.664 123.072 15.936 164.672a48.832 48.832 0 0 1-2.816 11.808l-1.888 4.832c-5.888 13.6-17.44 28-35.552 27.2l-10.912 0.352c-20.192 0-36.672-10.336-40.992-25.76-13.152-48.448 0.416-120.896 24.992-214.752l-6.304-15.296c-17.6-42.88-39.616-86.048-59.072-124.16l-2.528-4.96a2106.24 2106.24 0 0 0-55.84-102.816l-17.376-9.184c-1.28-0.672-31.04-16.416-38.016-20.64-59.264-35.392-98.528-75.552-105.024-107.424-2.08-10.176-0.544-23.2 10.016-29.216l16.8-8.448c7.296-3.648 14.976-5.504 22.848-5.504 42.208 0 91.2 52.576 158.688 170.368a1578.176 1578.176 0 0 0 244.416 58.08c59.264-33.376 132.128-56.544 178.144-56.544 8.16 0 15.2 0.768 20.928 2.304a35.52 35.52 0 0 1 20.8 14.208c8.928 13.44 10.72 31.936 8.32 50.88-0.736 5.632-5.216 12.576-10.08 17.312zM211.648 81.952c7.712 21.056 38.144 62.656 83.2 99.552 2.816 2.304 9.792 8.832 16.192 14.912-47.104-75.136-78.656-105.056-99.392-114.464zM478.432 696.32c13.568 0 21.28-34.208 21.92-66.24s-6.848-54.56-16.16-71.2c-7.712 24.64-11.424 63.488-11.424 88.896 0 0-0.576 48.544 5.664 48.544z m-79.584-437.824c9.44 16.928 19.296 34.752 29.344 53.664a1023.488 1023.488 0 0 1 51.488 112.352c22.912-41.696 51.456-77.12 84.992-105.504 4.192-3.552 8.608-7.104 13.28-10.656-68.224-13.504-127.168-29.92-179.072-49.856z m430.048 3.84c-4.16-2.592-16.064-4.096-23.712-4.096-24.704 0-55.264 11.296-98.112 29.664 16.48 1.216 31.552 1.824 45.088 1.824 24.768 0 32.128 0.096 56.352-6.08s24.544-18.72 20.384-21.344zM917.792 666.912c-22.208 30.304-53.184 65.696-87.168 99.712s-69.408 64.96-99.712 87.168C679.328 891.616 654.336 896 640 896H144A80.096 80.096 0 0 1 64 816v-864C64-92.096 99.872-128 144-128h736c44.096 0 80 35.904 80 80V576c0 14.336-4.384 39.36-42.208 90.912z m-132.416 54.464A874.688 874.688 0 0 0 857.952 640H704V793.952a874.688 874.688 0 0 0 81.376-72.576zM896-48c0-8.672-7.328-16-16-16h-736a16.224 16.224 0 0 0-16 16v864c0 8.672 7.328 16 16 16H640v-224a32 32 0 0 1 32-32h224v-624z"  horiz-adv-x="1024" />

    
    <glyph glyph-name="checkbox" unicode="&#58973;" d="M863.576287 687.066457 426.318572 222.470093 128.084167 431.219441 64.132646 399.253402 447.865307 47.505199 959.52557 687.066457Z"  horiz-adv-x="1024" />

    
    <glyph glyph-name="loading" unicode="&#59537;" d="M876.864 113.40800000000002c3.264 0 6.272 3.2 6.272 6.656 0 3.456-3.008 6.592-6.272 6.592-3.264 0-6.272-3.2-6.272-6.592 0-3.456 3.008-6.656 6.272-6.656z m-140.544-153.344c2.304-2.432 5.568-3.84 8.768-3.84a12.16 12.16 0 0 1 8.832 3.84 13.76 13.76 0 0 1 0 18.56 12.224 12.224 0 0 1-8.832 3.84 12.16 12.16 0 0 1-8.768-3.84 13.696 13.696 0 0 1 0-18.56zM552.32-122.24000000000001c3.456-3.648 8.32-5.76 13.184-5.76a18.368 18.368 0 0 1 13.184 5.76 20.608 20.608 0 0 1 0 27.968 18.368 18.368 0 0 1-13.184 5.824 18.368 18.368 0 0 1-13.184-5.76 20.608 20.608 0 0 1 0-28.032z m-198.336 5.76c4.608-4.8 11.072-7.68 17.6-7.68a24.448 24.448 0 0 1 17.536 7.68 27.456 27.456 0 0 1 0 37.248 24.448 24.448 0 0 1-17.536 7.68 24.448 24.448 0 0 1-17.6-7.68 27.52 27.52 0 0 1 0-37.184z m-175.68 91.84c5.76-6.08 13.824-9.6 21.952-9.6a30.592 30.592 0 0 1 22.016 9.6 34.368 34.368 0 0 1 0 46.592 30.592 30.592 0 0 1-22.016 9.6 30.592 30.592 0 0 1-21.952-9.6 34.368 34.368 0 0 1 0-46.592z m-121.152 159.36c6.912-7.36 16.64-11.648 26.368-11.648a36.736 36.736 0 0 1 26.432 11.584 41.28 41.28 0 0 1 0 55.936 36.736 36.736 0 0 1-26.432 11.584 36.8 36.8 0 0 1-26.368-11.52 41.28 41.28 0 0 1 0-56zM12.736 331.328a42.88 42.88 0 0 1 30.784-13.44 42.88 42.88 0 0 1 30.784 13.44 48.128 48.128 0 0 1 0 65.216 42.88 42.88 0 0 1-30.72 13.44 42.88 42.88 0 0 1-30.848-13.44 48.128 48.128 0 0 1 0-65.216z m39.808 195.392a48.96 48.96 0 0 1 35.2-15.36 48.96 48.96 0 0 1 35.2 15.36 54.976 54.976 0 0 1 0 74.56 48.96 48.96 0 0 1-35.2 15.424 48.96 48.96 0 0 1-35.2-15.424 54.976 54.976 0 0 1 0-74.56zM168.32 683.52c10.368-11.008 24.96-17.408 39.68-17.408 14.592 0 29.184 6.4 39.552 17.408a61.888 61.888 0 0 1 0 83.84 55.104 55.104 0 0 1-39.616 17.408c-14.656 0-29.248-6.4-39.616-17.408a61.888 61.888 0 0 1 0-83.84zM337.344 771.2c11.52-12.16 27.712-19.264 43.968-19.264 16.256 0 32.448 7.04 43.968 19.264a68.672 68.672 0 0 1 0 93.184 61.248 61.248 0 0 1-43.968 19.264 61.248 61.248 0 0 1-43.968-19.264 68.736 68.736 0 0 1 0-93.184z m189.632 1.088c12.672-13.44 30.528-21.248 48.448-21.248s35.712 7.808 48.384 21.248a75.584 75.584 0 0 1 0 102.464A67.392 67.392 0 0 1 575.36 896c-17.92 0-35.776-7.808-48.448-21.248a75.584 75.584 0 0 1 0-102.464z m173.824-86.592c13.824-14.592 33.28-23.104 52.736-23.104 19.584 0 39.04 8.512 52.8 23.104a82.432 82.432 0 0 1 0 111.744 73.472 73.472 0 0 1-52.8 23.168c-19.52 0-38.912-8.512-52.736-23.168a82.432 82.432 0 0 1 0-111.744z m124.032-158.528c14.976-15.872 36.032-25.088 57.216-25.088 21.12 0 42.24 9.216 57.152 25.088a89.344 89.344 0 0 1 0 121.088 79.616 79.616 0 0 1-57.152 25.088c-21.184 0-42.24-9.216-57.216-25.088a89.344 89.344 0 0 1 0-121.088z m50.432-204.032c16.128-17.088 38.784-27.008 61.632-27.008 22.784 0 45.44 9.92 61.568 27.008a96.256 96.256 0 0 1 0 130.432 85.76 85.76 0 0 1-61.568 27.072c-22.848 0-45.44-9.984-61.632-27.072a96.192 96.192 0 0 1 0-130.432z"  horiz-adv-x="1024" />

    
    <glyph glyph-name="arrow-left" unicode="&#59363;" d="M633.6 110.93333299999995c-8.533333 0-17.066667 2.133333-23.466667 8.533334L369.066667 360.53333299999997c-12.8 12.8-12.8 32 0 44.8l241.066666 241.066667c12.8 12.8 32 12.8 44.8 0 12.8-12.8 12.8-32 0-44.8L437.333333 384l219.733334-219.733333c12.8-12.8 12.8-32 0-44.8-8.533333-6.4-17.066667-8.533333-23.466667-8.533334z"  horiz-adv-x="1024" />

    
    <glyph glyph-name="arrow-right" unicode="&#59364;" d="M390.4 108.8c-8.533333 0-17.066667 2.133333-23.466667 8.533333-12.8 12.8-12.8 32 0 44.8L588.8 384 366.933333 603.733333c-12.8 12.8-12.8 32 0 44.8s32 12.8 44.8 0L654.933333 405.333333c6.4-6.4 8.533333-14.933333 8.533334-23.466666s-4.266667-17.066667-8.533334-23.466667L413.866667 117.333333c-6.4-4.266667-14.933333-8.533333-23.466667-8.533333z"  horiz-adv-x="1024" />

    
    <glyph glyph-name="sousuo" unicode="&#58961;" d="M970.961455-28.672 828.648727 113.640727C906.263273 196.817455 954.181818 308.061091 954.181818 430.545455 954.181818 687.220364 745.402182 896 488.727273 896 232.075636 896 23.272727 687.220364 23.272727 430.545455 23.272727 338.269091 50.338909 248.948364 101.585455 172.311273 112.290909 156.229818 133.957818 152.017455 149.992727 162.676364 166.027636 173.381818 170.333091 195.048727 159.627636 211.083636 116.107636 276.224 93.090909 352.093091 93.090909 430.545455 93.090909 648.704 270.568727 826.181818 488.727273 826.181818 706.885818 826.181818 884.363636 648.704 884.363636 430.545455 884.363636 212.386909 706.885818 34.909091 488.727273 34.909091 409.995636 34.909091 333.940364 58.042182 268.730182 101.771636 252.741818 112.453818 231.051636 108.241455 220.276364 92.229818 209.547636 76.218182 213.829818 54.528 229.818182 43.776 306.571636-7.703273 396.101818-34.909091 488.727273-34.909091 580.887273-34.909091 666.647273-7.633455 739.002182 38.749091L888.692364-110.941091C900.049455-122.298182 914.944-128 929.815273-128 944.709818-128 959.604364-122.298182 970.961455-110.941091 993.698909-88.226909 993.698909-51.409455 970.961455-28.672ZM247.552 499.304727C273.501091 599.936 356.910545 673.314909 460.055273 686.231273 479.185455 688.628364 492.753455 706.082909 490.356364 725.213091 487.959273 744.343273 470.365091 757.934545 451.374545 755.514182 319.627636 739.013818 213.108364 645.271273 179.968 516.712727 175.150545 498.048 186.368 479.010909 205.056 474.216727 207.965091 473.448727 210.897455 473.099636 213.783273 473.099636 229.329455 473.099636 243.502545 483.549091 247.552 499.304727Z"  horiz-adv-x="1024" />

    
    <glyph glyph-name="xiala-" unicode="&#58921;" d="M778.496 492.544a30.72 30.72 0 0 0-8.96-21.76l-230.4-230.4a30.72 30.72 0 0 0-43.52 0l-230.4 230.4a30.72 30.72 0 1 0 43.52 43.52l208.64-208.64 208.64 208.64a30.72 30.72 0 0 0 51.2-21.76z"  horiz-adv-x="1024" />

    


  </font>
</defs>
</svg>
